<svg width="398" height="198" viewBox="0 0 398 198" fill="none" xmlns="http://www.w3.org/2000/svg">
<g clip-path="url(#clip0_149_131193)">
<rect width="398" height="198" rx="32" fill="white"/>
<g opacity="0.05">
<path d="M39.4861 -12.5046C35.9887 -11.0296 27.6634 -7.37095 27.5317 -7.24963C27.2419 -6.99422 27.1958 -6.73882 27.2353 -5.77466C27.2485 -5.29577 27.288 -4.86158 27.3078 -4.8105C27.3341 -4.75942 30.1926 -3.33552 33.6703 -1.64984L39.9933 1.41504L46.3163 -1.64984C53.6009 -5.18084 52.771 -4.63171 52.771 -5.88959C52.771 -6.7452 52.6919 -7.05169 52.4087 -7.29433C52.2836 -7.39649 49.7939 -8.50751 46.2438 -10.0336C39.8813 -12.7792 40.013 -12.7281 39.4861 -12.5046Z" fill="#222222"/>
<path d="M46.3557 0.0234361C40.6848 2.76906 40.0788 3.05 39.8746 3.01169C39.7495 2.98615 36.8844 1.6325 33.5187 -0.00210476C26.5634 -3.36709 27.2155 -3.13722 27.2155 -2.24968C27.2155 -1.87296 27.2418 -1.73248 27.334 -1.63032C27.4855 -1.45792 39.7692 4.51221 39.9668 4.51221C40.0525 4.51221 42.9242 3.15217 46.3557 1.49202C51.6578 -1.07481 52.5997 -1.54731 52.6853 -1.70694C52.7972 -1.91127 52.7841 -2.8435 52.6721 -2.95205C52.6326 -2.99036 50.3537 -1.91765 46.3557 0.0234361Z" fill="#222222"/>
<path d="M27.4393 0.412748C27.2285 0.546837 27.2153 0.732006 27.2153 4.57588C27.2153 7.20018 27.2417 8.50275 27.2878 8.70069C27.3339 8.86032 27.4656 9.09019 27.6039 9.23705C27.8213 9.46691 28.4075 9.73509 33.7689 12.0465C38.7153 14.1792 39.7428 14.6006 39.993 14.6006C40.2302 14.6006 40.7702 14.3963 42.8252 13.5151C44.2545 12.9021 45.4137 12.3722 45.473 12.2955C45.5784 12.1742 45.5915 11.9699 45.5915 10.0863C45.5915 8.75177 45.6179 7.97278 45.664 7.88978C45.7364 7.7493 48.292 6.49143 48.4962 6.49143C48.562 6.49143 48.6806 6.54889 48.753 6.61913C48.8782 6.74045 48.8848 6.82984 48.8848 8.49637C48.8848 9.49245 48.9111 10.3225 48.9506 10.4183C49.0889 10.7631 49.247 10.7439 50.4589 10.2331C51.9804 9.58185 52.1977 9.46691 52.4283 9.19874C52.5402 9.07103 52.6588 8.84117 52.6983 8.68792C52.7905 8.33674 52.7971 0.827784 52.7049 0.591533C52.5534 0.202037 52.7115 0.131801 46.2699 3.25415C41.3433 5.6422 40.2104 6.17217 39.993 6.17217C39.7757 6.17217 38.6428 5.64858 33.7359 3.26692C30.4427 1.67063 27.6896 0.361667 27.6303 0.361667C27.5644 0.361667 27.4788 0.387208 27.4393 0.412748Z" fill="#222222"/>
<path d="M183.486 -12.5046C179.989 -11.0296 171.663 -7.37095 171.532 -7.24963C171.242 -6.99422 171.196 -6.73882 171.235 -5.77466C171.248 -5.29577 171.288 -4.86158 171.308 -4.8105C171.334 -4.75942 174.193 -3.33552 177.67 -1.64984L183.993 1.41504L190.316 -1.64984C197.601 -5.18084 196.771 -4.63171 196.771 -5.88959C196.771 -6.7452 196.692 -7.05169 196.409 -7.29433C196.284 -7.39649 193.794 -8.50751 190.244 -10.0336C183.881 -12.7792 184.013 -12.7281 183.486 -12.5046Z" fill="#222222"/>
<path d="M190.356 0.0234361C184.685 2.76906 184.079 3.05 183.875 3.01169C183.749 2.98615 180.884 1.6325 177.519 -0.00210476C170.563 -3.36709 171.215 -3.13722 171.215 -2.24968C171.215 -1.87296 171.242 -1.73248 171.334 -1.63032C171.486 -1.45792 183.769 4.51221 183.967 4.51221C184.052 4.51221 186.924 3.15217 190.356 1.49202C195.658 -1.07481 196.6 -1.54731 196.685 -1.70694C196.797 -1.91127 196.784 -2.8435 196.672 -2.95205C196.633 -2.99036 194.354 -1.91765 190.356 0.0234361Z" fill="#222222"/>
<path d="M171.439 0.412748C171.229 0.546837 171.215 0.732006 171.215 4.57588C171.215 7.20018 171.242 8.50275 171.288 8.70069C171.334 8.86032 171.466 9.09019 171.604 9.23705C171.821 9.46691 172.407 9.73509 177.769 12.0465C182.715 14.1792 183.743 14.6006 183.993 14.6006C184.23 14.6006 184.77 14.3963 186.825 13.5151C188.254 12.9021 189.414 12.3722 189.473 12.2955C189.578 12.1742 189.592 11.9699 189.592 10.0863C189.592 8.75177 189.618 7.97278 189.664 7.88978C189.736 7.7493 192.292 6.49143 192.496 6.49143C192.562 6.49143 192.681 6.54889 192.753 6.61913C192.878 6.74045 192.885 6.82984 192.885 8.49637C192.885 9.49245 192.911 10.3225 192.951 10.4183C193.089 10.7631 193.247 10.7439 194.459 10.2331C195.98 9.58185 196.198 9.46691 196.428 9.19874C196.54 9.07103 196.659 8.84117 196.698 8.68792C196.791 8.33674 196.797 0.827784 196.705 0.591533C196.553 0.202037 196.711 0.131801 190.27 3.25415C185.343 5.6422 184.21 6.17217 183.993 6.17217C183.776 6.17217 182.643 5.64858 177.736 3.26692C174.443 1.67063 171.69 0.361667 171.63 0.361667C171.564 0.361667 171.479 0.387208 171.439 0.412748Z" fill="#222222"/>
<path d="M327.486 -12.5046C323.989 -11.0296 315.663 -7.37095 315.532 -7.24963C315.242 -6.99422 315.196 -6.73882 315.235 -5.77466C315.248 -5.29577 315.288 -4.86158 315.308 -4.8105C315.334 -4.75942 318.193 -3.33552 321.67 -1.64984L327.993 1.41504L334.316 -1.64984C341.601 -5.18084 340.771 -4.63171 340.771 -5.88959C340.771 -6.7452 340.692 -7.05169 340.409 -7.29433C340.284 -7.39649 337.794 -8.50751 334.244 -10.0336C327.881 -12.7792 328.013 -12.7281 327.486 -12.5046Z" fill="#222222"/>
<path d="M334.356 0.0234361C328.685 2.76906 328.079 3.05 327.875 3.01169C327.749 2.98615 324.884 1.6325 321.519 -0.00210476C314.563 -3.36709 315.215 -3.13722 315.215 -2.24968C315.215 -1.87296 315.242 -1.73248 315.334 -1.63032C315.486 -1.45792 327.769 4.51221 327.967 4.51221C328.052 4.51221 330.924 3.15217 334.356 1.49202C339.658 -1.07481 340.6 -1.54731 340.685 -1.70694C340.797 -1.91127 340.784 -2.8435 340.672 -2.95205C340.633 -2.99036 338.354 -1.91765 334.356 0.0234361Z" fill="#222222"/>
<path d="M315.439 0.412748C315.229 0.546837 315.215 0.732006 315.215 4.57588C315.215 7.20018 315.242 8.50275 315.288 8.70069C315.334 8.86032 315.466 9.09019 315.604 9.23705C315.821 9.46691 316.407 9.73509 321.769 12.0465C326.715 14.1792 327.743 14.6006 327.993 14.6006C328.23 14.6006 328.77 14.3963 330.825 13.5151C332.254 12.9021 333.414 12.3722 333.473 12.2955C333.578 12.1742 333.592 11.9699 333.592 10.0863C333.592 8.75177 333.618 7.97278 333.664 7.88978C333.736 7.7493 336.292 6.49143 336.496 6.49143C336.562 6.49143 336.681 6.54889 336.753 6.61913C336.878 6.74045 336.885 6.82984 336.885 8.49637C336.885 9.49245 336.911 10.3225 336.951 10.4183C337.089 10.7631 337.247 10.7439 338.459 10.2331C339.98 9.58185 340.198 9.46691 340.428 9.19874C340.54 9.07103 340.659 8.84117 340.698 8.68792C340.791 8.33674 340.797 0.827784 340.705 0.591533C340.553 0.202037 340.711 0.131801 334.27 3.25415C329.343 5.6422 328.21 6.17217 327.993 6.17217C327.776 6.17217 326.643 5.64858 321.736 3.26692C318.443 1.67063 315.69 0.361667 315.63 0.361667C315.564 0.361667 315.479 0.387208 315.439 0.412748Z" fill="#222222"/>
<path d="M39.4861 59.4954C35.9887 60.9704 27.6634 64.6291 27.5317 64.7504C27.2419 65.0058 27.1958 65.2612 27.2353 66.2253C27.2485 66.7042 27.288 67.1384 27.3078 67.1895C27.3341 67.2406 30.1926 68.6645 33.6703 70.3502L39.9933 73.415L46.3163 70.3502C53.6009 66.8192 52.771 67.3683 52.771 66.1104C52.771 65.2548 52.6919 64.9483 52.4087 64.7057C52.2836 64.6035 49.7939 63.4925 46.2438 61.9664C39.8813 59.2208 40.013 59.2719 39.4861 59.4954Z" fill="#222222"/>
<path d="M46.3557 72.0234C40.6848 74.7691 40.0788 75.05 39.8746 75.0117C39.7495 74.9862 36.8844 73.6325 33.5187 71.9979C26.5634 68.6329 27.2155 68.8628 27.2155 69.7503C27.2155 70.127 27.2418 70.2675 27.334 70.3697C27.4855 70.5421 39.7692 76.5122 39.9668 76.5122C40.0525 76.5122 42.9242 75.1522 46.3557 73.492C51.6578 70.9252 52.5997 70.4527 52.6853 70.2931C52.7972 70.0887 52.7841 69.1565 52.6721 69.0479C52.6326 69.0096 50.3537 70.0823 46.3557 72.0234Z" fill="#222222"/>
<path d="M27.4393 72.4127C27.2285 72.5468 27.2153 72.732 27.2153 76.5759C27.2153 79.2002 27.2417 80.5028 27.2878 80.7007C27.3339 80.8603 27.4656 81.0902 27.6039 81.237C27.8213 81.4669 28.4075 81.7351 33.7689 84.0465C38.7153 86.1792 39.7428 86.6006 39.993 86.6006C40.2302 86.6006 40.7702 86.3963 42.8252 85.5151C44.2545 84.9021 45.4137 84.3722 45.473 84.2955C45.5784 84.1742 45.5915 83.9699 45.5915 82.0863C45.5915 80.7518 45.6179 79.9728 45.664 79.8898C45.7364 79.7493 48.292 78.4914 48.4962 78.4914C48.562 78.4914 48.6806 78.5489 48.753 78.6191C48.8782 78.7404 48.8848 78.8298 48.8848 80.4964C48.8848 81.4925 48.9111 82.3225 48.9506 82.4183C49.0889 82.7631 49.247 82.7439 50.4589 82.2331C51.9804 81.5818 52.1977 81.4669 52.4283 81.1987C52.5402 81.071 52.6588 80.8412 52.6983 80.6879C52.7905 80.3367 52.7971 72.8278 52.7049 72.5915C52.5534 72.202 52.7115 72.1318 46.2699 75.2541C41.3433 77.6422 40.2104 78.1722 39.993 78.1722C39.7757 78.1722 38.6428 77.6486 33.7359 75.2669C30.4427 73.6706 27.6896 72.3617 27.6303 72.3617C27.5644 72.3617 27.4788 72.3872 27.4393 72.4127Z" fill="#222222"/>
<path d="M183.486 59.4954C179.989 60.9704 171.663 64.6291 171.532 64.7504C171.242 65.0058 171.196 65.2612 171.235 66.2253C171.248 66.7042 171.288 67.1384 171.308 67.1895C171.334 67.2406 174.193 68.6645 177.67 70.3502L183.993 73.415L190.316 70.3502C197.601 66.8192 196.771 67.3683 196.771 66.1104C196.771 65.2548 196.692 64.9483 196.409 64.7057C196.284 64.6035 193.794 63.4925 190.244 61.9664C183.881 59.2208 184.013 59.2719 183.486 59.4954Z" fill="#222222"/>
<path d="M190.356 72.0234C184.685 74.7691 184.079 75.05 183.875 75.0117C183.749 74.9862 180.884 73.6325 177.519 71.9979C170.563 68.6329 171.215 68.8628 171.215 69.7503C171.215 70.127 171.242 70.2675 171.334 70.3697C171.486 70.5421 183.769 76.5122 183.967 76.5122C184.052 76.5122 186.924 75.1522 190.356 73.492C195.658 70.9252 196.6 70.4527 196.685 70.2931C196.797 70.0887 196.784 69.1565 196.672 69.0479C196.633 69.0096 194.354 70.0823 190.356 72.0234Z" fill="#222222"/>
<path d="M171.439 72.4127C171.229 72.5468 171.215 72.732 171.215 76.5759C171.215 79.2002 171.242 80.5028 171.288 80.7007C171.334 80.8603 171.466 81.0902 171.604 81.237C171.821 81.4669 172.407 81.7351 177.769 84.0465C182.715 86.1792 183.743 86.6006 183.993 86.6006C184.23 86.6006 184.77 86.3963 186.825 85.5151C188.254 84.9021 189.414 84.3722 189.473 84.2955C189.578 84.1742 189.592 83.9699 189.592 82.0863C189.592 80.7518 189.618 79.9728 189.664 79.8898C189.736 79.7493 192.292 78.4914 192.496 78.4914C192.562 78.4914 192.681 78.5489 192.753 78.6191C192.878 78.7404 192.885 78.8298 192.885 80.4964C192.885 81.4925 192.911 82.3225 192.951 82.4183C193.089 82.7631 193.247 82.7439 194.459 82.2331C195.98 81.5818 196.198 81.4669 196.428 81.1987C196.54 81.071 196.659 80.8412 196.698 80.6879C196.791 80.3367 196.797 72.8278 196.705 72.5915C196.553 72.202 196.711 72.1318 190.27 75.2541C185.343 77.6422 184.21 78.1722 183.993 78.1722C183.776 78.1722 182.643 77.6486 177.736 75.2669C174.443 73.6706 171.69 72.3617 171.63 72.3617C171.564 72.3617 171.479 72.3872 171.439 72.4127Z" fill="#222222"/>
<path d="M327.486 59.4954C323.989 60.9704 315.663 64.6291 315.532 64.7504C315.242 65.0058 315.196 65.2612 315.235 66.2253C315.248 66.7042 315.288 67.1384 315.308 67.1895C315.334 67.2406 318.193 68.6645 321.67 70.3502L327.993 73.415L334.316 70.3502C341.601 66.8192 340.771 67.3683 340.771 66.1104C340.771 65.2548 340.692 64.9483 340.409 64.7057C340.284 64.6035 337.794 63.4925 334.244 61.9664C327.881 59.2208 328.013 59.2719 327.486 59.4954Z" fill="#222222"/>
<path d="M334.356 72.0234C328.685 74.7691 328.079 75.05 327.875 75.0117C327.749 74.9862 324.884 73.6325 321.519 71.9979C314.563 68.6329 315.215 68.8628 315.215 69.7503C315.215 70.127 315.242 70.2675 315.334 70.3697C315.486 70.5421 327.769 76.5122 327.967 76.5122C328.052 76.5122 330.924 75.1522 334.356 73.492C339.658 70.9252 340.6 70.4527 340.685 70.2931C340.797 70.0887 340.784 69.1565 340.672 69.0479C340.633 69.0096 338.354 70.0823 334.356 72.0234Z" fill="#222222"/>
<path d="M315.439 72.4127C315.229 72.5468 315.215 72.732 315.215 76.5759C315.215 79.2002 315.242 80.5028 315.288 80.7007C315.334 80.8603 315.466 81.0902 315.604 81.237C315.821 81.4669 316.407 81.7351 321.769 84.0465C326.715 86.1792 327.743 86.6006 327.993 86.6006C328.23 86.6006 328.77 86.3963 330.825 85.5151C332.254 84.9021 333.414 84.3722 333.473 84.2955C333.578 84.1742 333.592 83.9699 333.592 82.0863C333.592 80.7518 333.618 79.9728 333.664 79.8898C333.736 79.7493 336.292 78.4914 336.496 78.4914C336.562 78.4914 336.681 78.5489 336.753 78.6191C336.878 78.7404 336.885 78.8298 336.885 80.4964C336.885 81.4925 336.911 82.3225 336.951 82.4183C337.089 82.7631 337.247 82.7439 338.459 82.2331C339.98 81.5818 340.198 81.4669 340.428 81.1987C340.54 81.071 340.659 80.8412 340.698 80.6879C340.791 80.3367 340.797 72.8278 340.705 72.5915C340.553 72.202 340.711 72.1318 334.27 75.2541C329.343 77.6422 328.21 78.1722 327.993 78.1722C327.776 78.1722 326.643 77.6486 321.736 75.2669C318.443 73.6706 315.69 72.3617 315.63 72.3617C315.564 72.3617 315.479 72.3872 315.439 72.4127Z" fill="#222222"/>
<path d="M39.4861 131.495C35.9887 132.97 27.6634 136.629 27.5317 136.75C27.2419 137.006 27.1958 137.261 27.2353 138.225C27.2485 138.704 27.288 139.138 27.3078 139.19C27.3341 139.241 30.1926 140.664 33.6703 142.35L39.9933 145.415L46.3163 142.35C53.6009 138.819 52.771 139.368 52.771 138.11C52.771 137.255 52.6919 136.948 52.4087 136.706C52.2836 136.604 49.7939 135.492 46.2438 133.966C39.8813 131.221 40.013 131.272 39.4861 131.495Z" fill="#222222"/>
<path d="M46.3557 144.023C40.6848 146.769 40.0788 147.05 39.8746 147.012C39.7495 146.986 36.8844 145.632 33.5187 143.998C26.5634 140.633 27.2155 140.863 27.2155 141.75C27.2155 142.127 27.2418 142.268 27.334 142.37C27.4855 142.542 39.7692 148.512 39.9668 148.512C40.0525 148.512 42.9242 147.152 46.3557 145.492C51.6578 142.925 52.5997 142.453 52.6853 142.293C52.7972 142.089 52.7841 141.156 52.6721 141.048C52.6326 141.01 50.3537 142.082 46.3557 144.023Z" fill="#222222"/>
<path d="M27.4393 144.413C27.2285 144.547 27.2153 144.732 27.2153 148.576C27.2153 151.2 27.2417 152.503 27.2878 152.701C27.3339 152.86 27.4656 153.09 27.6039 153.237C27.8213 153.467 28.4075 153.735 33.7689 156.047C38.7153 158.179 39.7428 158.601 39.993 158.601C40.2302 158.601 40.7702 158.396 42.8252 157.515C44.2545 156.902 45.4137 156.372 45.473 156.296C45.5784 156.174 45.5915 155.97 45.5915 154.086C45.5915 152.752 45.6179 151.973 45.664 151.89C45.7364 151.749 48.292 150.491 48.4962 150.491C48.562 150.491 48.6806 150.549 48.753 150.619C48.8782 150.74 48.8848 150.83 48.8848 152.496C48.8848 153.492 48.9111 154.323 48.9506 154.418C49.0889 154.763 49.247 154.744 50.4589 154.233C51.9804 153.582 52.1977 153.467 52.4283 153.199C52.5402 153.071 52.6588 152.841 52.6983 152.688C52.7905 152.337 52.7971 144.828 52.7049 144.592C52.5534 144.202 52.7115 144.132 46.2699 147.254C41.3433 149.642 40.2104 150.172 39.993 150.172C39.7757 150.172 38.6428 149.649 33.7359 147.267C30.4427 145.671 27.6896 144.362 27.6303 144.362C27.5644 144.362 27.4788 144.387 27.4393 144.413Z" fill="#222222"/>
<path d="M183.486 131.495C179.989 132.97 171.663 136.629 171.532 136.75C171.242 137.006 171.196 137.261 171.235 138.225C171.248 138.704 171.288 139.138 171.308 139.19C171.334 139.241 174.193 140.664 177.67 142.35L183.993 145.415L190.316 142.35C197.601 138.819 196.771 139.368 196.771 138.11C196.771 137.255 196.692 136.948 196.409 136.706C196.284 136.604 193.794 135.492 190.244 133.966C183.881 131.221 184.013 131.272 183.486 131.495Z" fill="#222222"/>
<path d="M190.356 144.023C184.685 146.769 184.079 147.05 183.875 147.012C183.749 146.986 180.884 145.632 177.519 143.998C170.563 140.633 171.215 140.863 171.215 141.75C171.215 142.127 171.242 142.268 171.334 142.37C171.486 142.542 183.769 148.512 183.967 148.512C184.052 148.512 186.924 147.152 190.356 145.492C195.658 142.925 196.6 142.453 196.685 142.293C196.797 142.089 196.784 141.156 196.672 141.048C196.633 141.01 194.354 142.082 190.356 144.023Z" fill="#222222"/>
<path d="M171.439 144.413C171.229 144.547 171.215 144.732 171.215 148.576C171.215 151.2 171.242 152.503 171.288 152.701C171.334 152.86 171.466 153.09 171.604 153.237C171.821 153.467 172.407 153.735 177.769 156.047C182.715 158.179 183.743 158.601 183.993 158.601C184.23 158.601 184.77 158.396 186.825 157.515C188.254 156.902 189.414 156.372 189.473 156.296C189.578 156.174 189.592 155.97 189.592 154.086C189.592 152.752 189.618 151.973 189.664 151.89C189.736 151.749 192.292 150.491 192.496 150.491C192.562 150.491 192.681 150.549 192.753 150.619C192.878 150.74 192.885 150.83 192.885 152.496C192.885 153.492 192.911 154.323 192.951 154.418C193.089 154.763 193.247 154.744 194.459 154.233C195.98 153.582 196.198 153.467 196.428 153.199C196.54 153.071 196.659 152.841 196.698 152.688C196.791 152.337 196.797 144.828 196.705 144.592C196.553 144.202 196.711 144.132 190.27 147.254C185.343 149.642 184.21 150.172 183.993 150.172C183.776 150.172 182.643 149.649 177.736 147.267C174.443 145.671 171.69 144.362 171.63 144.362C171.564 144.362 171.479 144.387 171.439 144.413Z" fill="#222222"/>
<path d="M327.486 131.495C323.989 132.97 315.663 136.629 315.532 136.75C315.242 137.006 315.196 137.261 315.235 138.225C315.248 138.704 315.288 139.138 315.308 139.19C315.334 139.241 318.193 140.664 321.67 142.35L327.993 145.415L334.316 142.35C341.601 138.819 340.771 139.368 340.771 138.11C340.771 137.255 340.692 136.948 340.409 136.706C340.284 136.604 337.794 135.492 334.244 133.966C327.881 131.221 328.013 131.272 327.486 131.495Z" fill="#222222"/>
<path d="M334.356 144.023C328.685 146.769 328.079 147.05 327.875 147.012C327.749 146.986 324.884 145.632 321.519 143.998C314.563 140.633 315.215 140.863 315.215 141.75C315.215 142.127 315.242 142.268 315.334 142.37C315.486 142.542 327.769 148.512 327.967 148.512C328.052 148.512 330.924 147.152 334.356 145.492C339.658 142.925 340.6 142.453 340.685 142.293C340.797 142.089 340.784 141.156 340.672 141.048C340.633 141.01 338.354 142.082 334.356 144.023Z" fill="#222222"/>
<path d="M315.439 144.413C315.229 144.547 315.215 144.732 315.215 148.576C315.215 151.2 315.242 152.503 315.288 152.701C315.334 152.86 315.466 153.09 315.604 153.237C315.821 153.467 316.407 153.735 321.769 156.047C326.715 158.179 327.743 158.601 327.993 158.601C328.23 158.601 328.77 158.396 330.825 157.515C332.254 156.902 333.414 156.372 333.473 156.296C333.578 156.174 333.592 155.97 333.592 154.086C333.592 152.752 333.618 151.973 333.664 151.89C333.736 151.749 336.292 150.491 336.496 150.491C336.562 150.491 336.681 150.549 336.753 150.619C336.878 150.74 336.885 150.83 336.885 152.496C336.885 153.492 336.911 154.323 336.951 154.418C337.089 154.763 337.247 154.744 338.459 154.233C339.98 153.582 340.198 153.467 340.428 153.199C340.54 153.071 340.659 152.841 340.698 152.688C340.791 152.337 340.797 144.828 340.705 144.592C340.553 144.202 340.711 144.132 334.27 147.254C329.343 149.642 328.21 150.172 327.993 150.172C327.776 150.172 326.643 149.649 321.736 147.267C318.443 145.671 315.69 144.362 315.63 144.362C315.564 144.362 315.479 144.387 315.439 144.413Z" fill="#222222"/>
<path d="M111.486 -12.5046C107.989 -11.0296 99.6634 -7.37095 99.5317 -7.24963C99.2419 -6.99422 99.1958 -6.73882 99.2353 -5.77466C99.2485 -5.29577 99.288 -4.86158 99.3078 -4.8105C99.3341 -4.75942 102.193 -3.33552 105.67 -1.64984L111.993 1.41504L118.316 -1.64984C125.601 -5.18084 124.771 -4.63171 124.771 -5.88959C124.771 -6.7452 124.692 -7.05169 124.409 -7.29433C124.284 -7.39649 121.794 -8.50751 118.244 -10.0336C111.881 -12.7792 112.013 -12.7281 111.486 -12.5046Z" fill="#222222"/>
<path d="M118.356 0.0234361C112.685 2.76906 112.079 3.05 111.875 3.01169C111.749 2.98615 108.884 1.6325 105.519 -0.00210476C98.5634 -3.36709 99.2155 -3.13722 99.2155 -2.24968C99.2155 -1.87296 99.2418 -1.73248 99.334 -1.63032C99.4855 -1.45792 111.769 4.51221 111.967 4.51221C112.052 4.51221 114.924 3.15217 118.356 1.49202C123.658 -1.07481 124.6 -1.54731 124.685 -1.70694C124.797 -1.91127 124.784 -2.8435 124.672 -2.95205C124.633 -2.99036 122.354 -1.91765 118.356 0.0234361Z" fill="#222222"/>
<path d="M99.4393 0.412748C99.2285 0.546837 99.2153 0.732006 99.2153 4.57588C99.2153 7.20018 99.2417 8.50275 99.2878 8.70069C99.3339 8.86032 99.4656 9.09019 99.6039 9.23705C99.8213 9.46691 100.407 9.73509 105.769 12.0465C110.715 14.1792 111.743 14.6006 111.993 14.6006C112.23 14.6006 112.77 14.3963 114.825 13.5151C116.254 12.9021 117.414 12.3722 117.473 12.2955C117.578 12.1742 117.592 11.9699 117.592 10.0863C117.592 8.75177 117.618 7.97278 117.664 7.88978C117.736 7.7493 120.292 6.49143 120.496 6.49143C120.562 6.49143 120.681 6.54889 120.753 6.61913C120.878 6.74045 120.885 6.82984 120.885 8.49637C120.885 9.49245 120.911 10.3225 120.951 10.4183C121.089 10.7631 121.247 10.7439 122.459 10.2331C123.98 9.58185 124.198 9.46691 124.428 9.19874C124.54 9.07103 124.659 8.84117 124.698 8.68792C124.791 8.33674 124.797 0.827784 124.705 0.591533C124.553 0.202037 124.711 0.131801 118.27 3.25415C113.343 5.6422 112.21 6.17217 111.993 6.17217C111.776 6.17217 110.643 5.64858 105.736 3.26692C102.443 1.67063 99.6896 0.361667 99.6303 0.361667C99.5644 0.361667 99.4788 0.387208 99.4393 0.412748Z" fill="#222222"/>
<path d="M255.486 -12.5046C251.989 -11.0296 243.663 -7.37095 243.532 -7.24963C243.242 -6.99422 243.196 -6.73882 243.235 -5.77466C243.248 -5.29577 243.288 -4.86158 243.308 -4.8105C243.334 -4.75942 246.193 -3.33552 249.67 -1.64984L255.993 1.41504L262.316 -1.64984C269.601 -5.18084 268.771 -4.63171 268.771 -5.88959C268.771 -6.7452 268.692 -7.05169 268.409 -7.29433C268.284 -7.39649 265.794 -8.50751 262.244 -10.0336C255.881 -12.7792 256.013 -12.7281 255.486 -12.5046Z" fill="#222222"/>
<path d="M262.356 0.0234361C256.685 2.76906 256.079 3.05 255.875 3.01169C255.749 2.98615 252.884 1.6325 249.519 -0.00210476C242.563 -3.36709 243.215 -3.13722 243.215 -2.24968C243.215 -1.87296 243.242 -1.73248 243.334 -1.63032C243.486 -1.45792 255.769 4.51221 255.967 4.51221C256.052 4.51221 258.924 3.15217 262.356 1.49202C267.658 -1.07481 268.6 -1.54731 268.685 -1.70694C268.797 -1.91127 268.784 -2.8435 268.672 -2.95205C268.633 -2.99036 266.354 -1.91765 262.356 0.0234361Z" fill="#222222"/>
<path d="M243.439 0.412748C243.229 0.546837 243.215 0.732006 243.215 4.57588C243.215 7.20018 243.242 8.50275 243.288 8.70069C243.334 8.86032 243.466 9.09019 243.604 9.23705C243.821 9.46691 244.407 9.73509 249.769 12.0465C254.715 14.1792 255.743 14.6006 255.993 14.6006C256.23 14.6006 256.77 14.3963 258.825 13.5151C260.254 12.9021 261.414 12.3722 261.473 12.2955C261.578 12.1742 261.592 11.9699 261.592 10.0863C261.592 8.75177 261.618 7.97278 261.664 7.88978C261.736 7.7493 264.292 6.49143 264.496 6.49143C264.562 6.49143 264.681 6.54889 264.753 6.61913C264.878 6.74045 264.885 6.82984 264.885 8.49637C264.885 9.49245 264.911 10.3225 264.951 10.4183C265.089 10.7631 265.247 10.7439 266.459 10.2331C267.98 9.58185 268.198 9.46691 268.428 9.19874C268.54 9.07103 268.659 8.84117 268.698 8.68792C268.791 8.33674 268.797 0.827784 268.705 0.591533C268.553 0.202037 268.711 0.131801 262.27 3.25415C257.343 5.6422 256.21 6.17217 255.993 6.17217C255.776 6.17217 254.643 5.64858 249.736 3.26692C246.443 1.67063 243.69 0.361667 243.63 0.361667C243.564 0.361667 243.479 0.387208 243.439 0.412748Z" fill="#222222"/>
<path d="M399.486 -12.5046C395.989 -11.0296 387.663 -7.37095 387.532 -7.24963C387.242 -6.99422 387.196 -6.73882 387.235 -5.77466C387.248 -5.29577 387.288 -4.86158 387.308 -4.8105C387.334 -4.75942 390.193 -3.33552 393.67 -1.64984L399.993 1.41504L406.316 -1.64984C413.601 -5.18084 412.771 -4.63171 412.771 -5.88959C412.771 -6.7452 412.692 -7.05169 412.409 -7.29433C412.284 -7.39649 409.794 -8.50751 406.244 -10.0336C399.881 -12.7792 400.013 -12.7281 399.486 -12.5046Z" fill="#222222"/>
<path d="M406.356 0.0234361C400.685 2.76906 400.079 3.05 399.875 3.01169C399.749 2.98615 396.884 1.6325 393.519 -0.00210476C386.563 -3.36709 387.215 -3.13722 387.215 -2.24968C387.215 -1.87296 387.242 -1.73248 387.334 -1.63032C387.486 -1.45792 399.769 4.51221 399.967 4.51221C400.052 4.51221 402.924 3.15217 406.356 1.49202C411.658 -1.07481 412.6 -1.54731 412.685 -1.70694C412.797 -1.91127 412.784 -2.8435 412.672 -2.95205C412.633 -2.99036 410.354 -1.91765 406.356 0.0234361Z" fill="#222222"/>
<path d="M387.439 0.412748C387.229 0.546837 387.215 0.732006 387.215 4.57588C387.215 7.20018 387.242 8.50275 387.288 8.70069C387.334 8.86032 387.466 9.09019 387.604 9.23705C387.821 9.46691 388.407 9.73509 393.769 12.0465C398.715 14.1792 399.743 14.6006 399.993 14.6006C400.23 14.6006 400.77 14.3963 402.825 13.5151C404.254 12.9021 405.414 12.3722 405.473 12.2955C405.578 12.1742 405.592 11.9699 405.592 10.0863C405.592 8.75177 405.618 7.97278 405.664 7.88978C405.736 7.7493 408.292 6.49143 408.496 6.49143C408.562 6.49143 408.681 6.54889 408.753 6.61913C408.878 6.74045 408.885 6.82984 408.885 8.49637C408.885 9.49245 408.911 10.3225 408.951 10.4183C409.089 10.7631 409.247 10.7439 410.459 10.2331C411.98 9.58185 412.198 9.46691 412.428 9.19874C412.54 9.07103 412.659 8.84117 412.698 8.68792C412.791 8.33674 412.797 0.827784 412.705 0.591533C412.553 0.202037 412.711 0.131801 406.27 3.25415C401.343 5.6422 400.21 6.17217 399.993 6.17217C399.776 6.17217 398.643 5.64858 393.736 3.26692C390.443 1.67063 387.69 0.361667 387.63 0.361667C387.564 0.361667 387.479 0.387208 387.439 0.412748Z" fill="#222222"/>
<path d="M111.486 59.4954C107.989 60.9704 99.6634 64.6291 99.5317 64.7504C99.2419 65.0058 99.1958 65.2612 99.2353 66.2253C99.2485 66.7042 99.288 67.1384 99.3078 67.1895C99.3341 67.2406 102.193 68.6645 105.67 70.3502L111.993 73.415L118.316 70.3502C125.601 66.8192 124.771 67.3683 124.771 66.1104C124.771 65.2548 124.692 64.9483 124.409 64.7057C124.284 64.6035 121.794 63.4925 118.244 61.9664C111.881 59.2208 112.013 59.2719 111.486 59.4954Z" fill="#222222"/>
<path d="M118.356 72.0234C112.685 74.7691 112.079 75.05 111.875 75.0117C111.749 74.9862 108.884 73.6325 105.519 71.9979C98.5634 68.6329 99.2155 68.8628 99.2155 69.7503C99.2155 70.127 99.2418 70.2675 99.334 70.3697C99.4855 70.5421 111.769 76.5122 111.967 76.5122C112.052 76.5122 114.924 75.1522 118.356 73.492C123.658 70.9252 124.6 70.4527 124.685 70.2931C124.797 70.0887 124.784 69.1565 124.672 69.0479C124.633 69.0096 122.354 70.0823 118.356 72.0234Z" fill="#222222"/>
<path d="M99.4393 72.4127C99.2285 72.5468 99.2153 72.732 99.2153 76.5759C99.2153 79.2002 99.2417 80.5028 99.2878 80.7007C99.3339 80.8603 99.4656 81.0902 99.6039 81.237C99.8213 81.4669 100.407 81.7351 105.769 84.0465C110.715 86.1792 111.743 86.6006 111.993 86.6006C112.23 86.6006 112.77 86.3963 114.825 85.5151C116.254 84.9021 117.414 84.3722 117.473 84.2955C117.578 84.1742 117.592 83.9699 117.592 82.0863C117.592 80.7518 117.618 79.9728 117.664 79.8898C117.736 79.7493 120.292 78.4914 120.496 78.4914C120.562 78.4914 120.681 78.5489 120.753 78.6191C120.878 78.7404 120.885 78.8298 120.885 80.4964C120.885 81.4925 120.911 82.3225 120.951 82.4183C121.089 82.7631 121.247 82.7439 122.459 82.2331C123.98 81.5818 124.198 81.4669 124.428 81.1987C124.54 81.071 124.659 80.8412 124.698 80.6879C124.791 80.3367 124.797 72.8278 124.705 72.5915C124.553 72.202 124.711 72.1318 118.27 75.2541C113.343 77.6422 112.21 78.1722 111.993 78.1722C111.776 78.1722 110.643 77.6486 105.736 75.2669C102.443 73.6706 99.6896 72.3617 99.6303 72.3617C99.5644 72.3617 99.4788 72.3872 99.4393 72.4127Z" fill="#222222"/>
<path d="M255.486 59.4954C251.989 60.9704 243.663 64.6291 243.532 64.7504C243.242 65.0058 243.196 65.2612 243.235 66.2253C243.248 66.7042 243.288 67.1384 243.308 67.1895C243.334 67.2406 246.193 68.6645 249.67 70.3502L255.993 73.415L262.316 70.3502C269.601 66.8192 268.771 67.3683 268.771 66.1104C268.771 65.2548 268.692 64.9483 268.409 64.7057C268.284 64.6035 265.794 63.4925 262.244 61.9664C255.881 59.2208 256.013 59.2719 255.486 59.4954Z" fill="#222222"/>
<path d="M262.356 72.0234C256.685 74.7691 256.079 75.05 255.875 75.0117C255.749 74.9862 252.884 73.6325 249.519 71.9979C242.563 68.6329 243.215 68.8628 243.215 69.7503C243.215 70.127 243.242 70.2675 243.334 70.3697C243.486 70.5421 255.769 76.5122 255.967 76.5122C256.052 76.5122 258.924 75.1522 262.356 73.492C267.658 70.9252 268.6 70.4527 268.685 70.2931C268.797 70.0887 268.784 69.1565 268.672 69.0479C268.633 69.0096 266.354 70.0823 262.356 72.0234Z" fill="#222222"/>
<path d="M243.439 72.4127C243.229 72.5468 243.215 72.732 243.215 76.5759C243.215 79.2002 243.242 80.5028 243.288 80.7007C243.334 80.8603 243.466 81.0902 243.604 81.237C243.821 81.4669 244.407 81.7351 249.769 84.0465C254.715 86.1792 255.743 86.6006 255.993 86.6006C256.23 86.6006 256.77 86.3963 258.825 85.5151C260.254 84.9021 261.414 84.3722 261.473 84.2955C261.578 84.1742 261.592 83.9699 261.592 82.0863C261.592 80.7518 261.618 79.9728 261.664 79.8898C261.736 79.7493 264.292 78.4914 264.496 78.4914C264.562 78.4914 264.681 78.5489 264.753 78.6191C264.878 78.7404 264.885 78.8298 264.885 80.4964C264.885 81.4925 264.911 82.3225 264.951 82.4183C265.089 82.7631 265.247 82.7439 266.459 82.2331C267.98 81.5818 268.198 81.4669 268.428 81.1987C268.54 81.071 268.659 80.8412 268.698 80.6879C268.791 80.3367 268.797 72.8278 268.705 72.5915C268.553 72.202 268.711 72.1318 262.27 75.2541C257.343 77.6422 256.21 78.1722 255.993 78.1722C255.776 78.1722 254.643 77.6486 249.736 75.2669C246.443 73.6706 243.69 72.3617 243.63 72.3617C243.564 72.3617 243.479 72.3872 243.439 72.4127Z" fill="#222222"/>
<path d="M399.486 59.4954C395.989 60.9704 387.663 64.6291 387.532 64.7504C387.242 65.0058 387.196 65.2612 387.235 66.2253C387.248 66.7042 387.288 67.1384 387.308 67.1895C387.334 67.2406 390.193 68.6645 393.67 70.3502L399.993 73.415L406.316 70.3502C413.601 66.8192 412.771 67.3683 412.771 66.1104C412.771 65.2548 412.692 64.9483 412.409 64.7057C412.284 64.6035 409.794 63.4925 406.244 61.9664C399.881 59.2208 400.013 59.2719 399.486 59.4954Z" fill="#222222"/>
<path d="M406.356 72.0234C400.685 74.7691 400.079 75.05 399.875 75.0117C399.749 74.9862 396.884 73.6325 393.519 71.9979C386.563 68.6329 387.215 68.8628 387.215 69.7503C387.215 70.127 387.242 70.2675 387.334 70.3697C387.486 70.5421 399.769 76.5122 399.967 76.5122C400.052 76.5122 402.924 75.1522 406.356 73.492C411.658 70.9252 412.6 70.4527 412.685 70.2931C412.797 70.0887 412.784 69.1565 412.672 69.0479C412.633 69.0096 410.354 70.0823 406.356 72.0234Z" fill="#222222"/>
<path d="M387.439 72.4127C387.229 72.5468 387.215 72.732 387.215 76.5759C387.215 79.2002 387.242 80.5028 387.288 80.7007C387.334 80.8603 387.466 81.0902 387.604 81.237C387.821 81.4669 388.407 81.7351 393.769 84.0465C398.715 86.1792 399.743 86.6006 399.993 86.6006C400.23 86.6006 400.77 86.3963 402.825 85.5151C404.254 84.9021 405.414 84.3722 405.473 84.2955C405.578 84.1742 405.592 83.9699 405.592 82.0863C405.592 80.7518 405.618 79.9728 405.664 79.8898C405.736 79.7493 408.292 78.4914 408.496 78.4914C408.562 78.4914 408.681 78.5489 408.753 78.6191C408.878 78.7404 408.885 78.8298 408.885 80.4964C408.885 81.4925 408.911 82.3225 408.951 82.4183C409.089 82.7631 409.247 82.7439 410.459 82.2331C411.98 81.5818 412.198 81.4669 412.428 81.1987C412.54 81.071 412.659 80.8412 412.698 80.6879C412.791 80.3367 412.797 72.8278 412.705 72.5915C412.553 72.202 412.711 72.1318 406.27 75.2541C401.343 77.6422 400.21 78.1722 399.993 78.1722C399.776 78.1722 398.643 77.6486 393.736 75.2669C390.443 73.6706 387.69 72.3617 387.63 72.3617C387.564 72.3617 387.479 72.3872 387.439 72.4127Z" fill="#222222"/>
<path d="M111.486 131.495C107.989 132.97 99.6634 136.629 99.5317 136.75C99.2419 137.006 99.1958 137.261 99.2353 138.225C99.2485 138.704 99.288 139.138 99.3078 139.19C99.3341 139.241 102.193 140.664 105.67 142.35L111.993 145.415L118.316 142.35C125.601 138.819 124.771 139.368 124.771 138.11C124.771 137.255 124.692 136.948 124.409 136.706C124.284 136.604 121.794 135.492 118.244 133.966C111.881 131.221 112.013 131.272 111.486 131.495Z" fill="#222222"/>
<path d="M118.356 144.023C112.685 146.769 112.079 147.05 111.875 147.012C111.749 146.986 108.884 145.632 105.519 143.998C98.5634 140.633 99.2155 140.863 99.2155 141.75C99.2155 142.127 99.2418 142.268 99.334 142.37C99.4855 142.542 111.769 148.512 111.967 148.512C112.052 148.512 114.924 147.152 118.356 145.492C123.658 142.925 124.6 142.453 124.685 142.293C124.797 142.089 124.784 141.156 124.672 141.048C124.633 141.01 122.354 142.082 118.356 144.023Z" fill="#222222"/>
<path d="M99.4393 144.413C99.2285 144.547 99.2153 144.732 99.2153 148.576C99.2153 151.2 99.2417 152.503 99.2878 152.701C99.3339 152.86 99.4656 153.09 99.6039 153.237C99.8213 153.467 100.407 153.735 105.769 156.047C110.715 158.179 111.743 158.601 111.993 158.601C112.23 158.601 112.77 158.396 114.825 157.515C116.254 156.902 117.414 156.372 117.473 156.296C117.578 156.174 117.592 155.97 117.592 154.086C117.592 152.752 117.618 151.973 117.664 151.89C117.736 151.749 120.292 150.491 120.496 150.491C120.562 150.491 120.681 150.549 120.753 150.619C120.878 150.74 120.885 150.83 120.885 152.496C120.885 153.492 120.911 154.323 120.951 154.418C121.089 154.763 121.247 154.744 122.459 154.233C123.98 153.582 124.198 153.467 124.428 153.199C124.54 153.071 124.659 152.841 124.698 152.688C124.791 152.337 124.797 144.828 124.705 144.592C124.553 144.202 124.711 144.132 118.27 147.254C113.343 149.642 112.21 150.172 111.993 150.172C111.776 150.172 110.643 149.649 105.736 147.267C102.443 145.671 99.6896 144.362 99.6303 144.362C99.5644 144.362 99.4788 144.387 99.4393 144.413Z" fill="#222222"/>
<path d="M255.486 131.495C251.989 132.97 243.663 136.629 243.532 136.75C243.242 137.006 243.196 137.261 243.235 138.225C243.248 138.704 243.288 139.138 243.308 139.19C243.334 139.241 246.193 140.664 249.67 142.35L255.993 145.415L262.316 142.35C269.601 138.819 268.771 139.368 268.771 138.11C268.771 137.255 268.692 136.948 268.409 136.706C268.284 136.604 265.794 135.492 262.244 133.966C255.881 131.221 256.013 131.272 255.486 131.495Z" fill="#222222"/>
<path d="M262.356 144.023C256.685 146.769 256.079 147.05 255.875 147.012C255.749 146.986 252.884 145.632 249.519 143.998C242.563 140.633 243.215 140.863 243.215 141.75C243.215 142.127 243.242 142.268 243.334 142.37C243.486 142.542 255.769 148.512 255.967 148.512C256.052 148.512 258.924 147.152 262.356 145.492C267.658 142.925 268.6 142.453 268.685 142.293C268.797 142.089 268.784 141.156 268.672 141.048C268.633 141.01 266.354 142.082 262.356 144.023Z" fill="#222222"/>
<path d="M243.439 144.413C243.229 144.547 243.215 144.732 243.215 148.576C243.215 151.2 243.242 152.503 243.288 152.701C243.334 152.86 243.466 153.09 243.604 153.237C243.821 153.467 244.407 153.735 249.769 156.047C254.715 158.179 255.743 158.601 255.993 158.601C256.23 158.601 256.77 158.396 258.825 157.515C260.254 156.902 261.414 156.372 261.473 156.296C261.578 156.174 261.592 155.97 261.592 154.086C261.592 152.752 261.618 151.973 261.664 151.89C261.736 151.749 264.292 150.491 264.496 150.491C264.562 150.491 264.681 150.549 264.753 150.619C264.878 150.74 264.885 150.83 264.885 152.496C264.885 153.492 264.911 154.323 264.951 154.418C265.089 154.763 265.247 154.744 266.459 154.233C267.98 153.582 268.198 153.467 268.428 153.199C268.54 153.071 268.659 152.841 268.698 152.688C268.791 152.337 268.797 144.828 268.705 144.592C268.553 144.202 268.711 144.132 262.27 147.254C257.343 149.642 256.21 150.172 255.993 150.172C255.776 150.172 254.643 149.649 249.736 147.267C246.443 145.671 243.69 144.362 243.63 144.362C243.564 144.362 243.479 144.387 243.439 144.413Z" fill="#222222"/>
<path d="M399.486 131.495C395.989 132.97 387.663 136.629 387.532 136.75C387.242 137.006 387.196 137.261 387.235 138.225C387.248 138.704 387.288 139.138 387.308 139.19C387.334 139.241 390.193 140.664 393.67 142.35L399.993 145.415L406.316 142.35C413.601 138.819 412.771 139.368 412.771 138.11C412.771 137.255 412.692 136.948 412.409 136.706C412.284 136.604 409.794 135.492 406.244 133.966C399.881 131.221 400.013 131.272 399.486 131.495Z" fill="#222222"/>
<path d="M406.356 144.023C400.685 146.769 400.079 147.05 399.875 147.012C399.749 146.986 396.884 145.632 393.519 143.998C386.563 140.633 387.215 140.863 387.215 141.75C387.215 142.127 387.242 142.268 387.334 142.37C387.486 142.542 399.769 148.512 399.967 148.512C400.052 148.512 402.924 147.152 406.356 145.492C411.658 142.925 412.6 142.453 412.685 142.293C412.797 142.089 412.784 141.156 412.672 141.048C412.633 141.01 410.354 142.082 406.356 144.023Z" fill="#222222"/>
<path d="M387.439 144.413C387.229 144.547 387.215 144.732 387.215 148.576C387.215 151.2 387.242 152.503 387.288 152.701C387.334 152.86 387.466 153.09 387.604 153.237C387.821 153.467 388.407 153.735 393.769 156.047C398.715 158.179 399.743 158.601 399.993 158.601C400.23 158.601 400.77 158.396 402.825 157.515C404.254 156.902 405.414 156.372 405.473 156.296C405.578 156.174 405.592 155.97 405.592 154.086C405.592 152.752 405.618 151.973 405.664 151.89C405.736 151.749 408.292 150.491 408.496 150.491C408.562 150.491 408.681 150.549 408.753 150.619C408.878 150.74 408.885 150.83 408.885 152.496C408.885 153.492 408.911 154.323 408.951 154.418C409.089 154.763 409.247 154.744 410.459 154.233C411.98 153.582 412.198 153.467 412.428 153.199C412.54 153.071 412.659 152.841 412.698 152.688C412.791 152.337 412.797 144.828 412.705 144.592C412.553 144.202 412.711 144.132 406.27 147.254C401.343 149.642 400.21 150.172 399.993 150.172C399.776 150.172 398.643 149.649 393.736 147.267C390.443 145.671 387.69 144.362 387.63 144.362C387.564 144.362 387.479 144.387 387.439 144.413Z" fill="#222222"/>
</g>
</g>
<defs>
<clipPath id="clip0_149_131193">
<rect width="398" height="198" rx="32" fill="white"/>
</clipPath>
</defs>
</svg>
